<?xml version="1.0" encoding="UTF-8"?><svg id="Capa_2" xmlns="http://www.w3.org/2000/svg" viewBox="0 0 574.26 213.44"><defs><style>.cls-1,.cls-2{fill:none;stroke:#fff;stroke-miterlimit:10;stroke-width:5.4px;}.cls-3{fill:#fff;}.cls-2{stroke-linecap:round;}</style></defs><g id="Layer_1"><path class="cls-3" d="M268.5,99.08c-.98.43-2.86.77-5.17.77-8.84,0-13.03-6.78-13.03-16,0-12.2,7.21-16.96,13.9-16.96,2.34,0,3.98.43,4.65.87l-1.12,5.29c-.77-.34-1.63-.63-3.12-.63-3.78,0-7.21,3.07-7.21,11.1s3.12,10.77,7.21,10.77c1.12,0,2.41-.24,3.22-.49l.67,5.29Z"/><path class="cls-3" d="M292.96,82.79c0,12.21-4.6,17.15-11.14,17.15-7.82,0-10.88-7.78-10.88-16.67s3.73-16.48,11.4-16.48c8.28,0,10.63,8.6,10.63,15.99ZM277.89,83.37c0,7.34,1.48,11.1,4.19,11.1,2.86,0,3.93-4.8,3.93-11.39,0-5.67-.92-10.8-3.99-10.8-2.65,0-4.13,4.13-4.13,11.1Z"/><path class="cls-3" d="M298.22,99.56v-32.38h6.14l5.31,12.68c1.07,2.49,2.71,6.67,3.68,9.46h.1c-.21-3.41-.67-9.03-.67-14.98v-7.16h5.88v32.38h-6.13l-5.26-12.3c-1.17-2.74-2.71-6.87-3.53-9.75h-.1c.2,3.27.46,8.26.46,14.8v7.25h-5.88Z"/><path class="cls-3" d="M324.6,93.12c1.38.72,3.79,1.25,5.67,1.25,3.12,0,4.7-1.54,4.7-3.65,0-2.35-1.53-3.5-4.45-5.28-4.7-2.69-6.49-6.1-6.49-9.03,0-5.18,3.68-9.51,10.83-9.51,2.3,0,4.45.58,5.42,1.15l-1.07,5.43c-.97-.58-2.46-1.11-4.35-1.11-2.86,0-4.24,1.63-4.24,3.37,0,1.91,1.02,2.92,4.7,5.04,4.6,2.59,6.23,5.86,6.23,9.27,0,5.91-4.65,9.8-11.34,9.8-2.76,0-5.42-.68-6.59-1.3l.97-5.42Z"/><path class="cls-3" d="M360.79,85.34h-7.82v8.74h8.84v5.48h-15.53v-32.38h14.97v5.48h-8.28v7.44h7.82v5.24Z"/><path class="cls-3" d="M371.36,67.18h6.69v22.05c0,9.31-4.81,10.71-9.66,10.71-1.38,0-2.66-.19-3.37-.48l.57-5.28c.61.19,1.33.23,2.2.23,1.94,0,3.58-.72,3.58-4.9v-22.34Z"/><path class="cls-3" d="M404.99,82.79c0,12.21-4.6,17.15-11.14,17.15-7.82,0-10.88-7.78-10.88-16.67s3.73-16.48,11.4-16.48c8.28,0,10.63,8.6,10.63,15.99ZM389.91,83.37c0,7.34,1.49,11.1,4.2,11.1,2.86,0,3.93-4.8,3.93-11.39,0-5.67-.92-10.8-3.99-10.8-2.65,0-4.14,4.13-4.14,11.1Z"/><path class="cls-3" d="M420.42,67.18h14.97v5.48h-8.28v8.31h7.77v5.23h-7.77v13.36h-6.69v-32.38Z"/><path class="cls-3" d="M455.07,85.34h-7.81v8.74h8.84v5.48h-15.54v-32.38h14.97v5.48h-8.28v7.44h7.81v5.24Z"/><path class="cls-3" d="M461.58,67.66c1.69-.39,4.14-.62,6.79-.62,4.35,0,7.36.96,9.56,2.88,2.96,2.5,4.5,6.77,4.5,13.07s-1.79,11.2-4.81,13.69c-2.35,2.07-5.72,3.12-10.47,3.12-2.14,0-4.24-.19-5.57-.39v-31.75ZM468.27,94.56c.36.09.82.09,1.18.09,3.21,0,6.03-2.98,6.03-11.91,0-6.63-1.84-10.66-5.87-10.66-.46,0-.92,0-1.33.14v22.34Z"/><path class="cls-3" d="M502.12,85.34h-7.82v8.74h8.84v5.48h-15.54v-32.38h14.97v5.48h-8.28v7.44h7.82v5.24Z"/><path class="cls-3" d="M508.62,67.66c2.1-.39,4.75-.62,7.31-.62,3.68,0,7,.53,9.2,2.4,2.1,1.78,2.76,3.94,2.76,6.73,0,3.46-1.84,6.58-5.31,8.07v.09c2.35.92,3.53,2.93,4.19,6.44.67,3.6,1.59,7.59,2.2,8.79h-7c-.46-.91-1.22-4.18-1.74-7.78-.61-3.98-1.69-5.14-3.88-5.14h-1.02v12.92h-6.7v-31.89ZM515.32,81.78h1.23c2.91,0,4.55-2.21,4.55-5.04s-1.18-4.71-4.14-4.81c-.61,0-1.28.05-1.63.2v9.65Z"/><path class="cls-3" d="M540.16,92.16l-1.53,7.4h-6.49l7.46-32.38h8.02l6.7,32.38h-6.49l-1.48-7.4h-6.18ZM545.73,87.26l-1.12-6.77c-.36-1.97-.82-5.24-1.12-7.35h-.16c-.36,2.16-.87,5.48-1.23,7.35l-1.28,6.77h4.91Z"/><path class="cls-3" d="M558.78,67.18h6.69v27.04h8.79v5.33h-15.48v-32.38Z"/><path class="cls-3" d="M251.99,115.7c1.68-.39,4.14-.63,6.79-.63,4.34,0,7.36.96,9.56,2.88,2.96,2.5,4.5,6.77,4.5,13.07s-1.79,11.19-4.8,13.69c-2.35,2.07-5.72,3.12-10.47,3.12-2.14,0-4.24-.2-5.57-.39v-31.74ZM258.68,142.59c.36.1.82.1,1.18.1,3.22,0,6.03-2.98,6.03-11.92,0-6.62-1.84-10.66-5.88-10.66-.46,0-.92,0-1.33.14v22.34Z"/><path class="cls-3" d="M292.53,133.37h-7.82v8.74h8.85v5.48h-15.54v-32.38h14.97v5.48h-8.28v7.44h7.82v5.24Z"/><path class="cls-3" d="M316.03,115.21v32.38h-6.69v-32.38h6.69Z"/><path class="cls-3" d="M322.91,147.59v-32.38h6.14l5.31,12.68c1.07,2.5,2.71,6.68,3.68,9.46h.1c-.2-3.41-.66-9.03-.66-14.98v-7.16h5.88v32.38h-6.13l-5.26-12.3c-1.18-2.74-2.71-6.87-3.53-9.75h-.1c.21,3.26.47,8.26.47,14.8v7.25h-5.88Z"/><path class="cls-3" d="M355.39,147.59l-7.66-32.38h7.41l2.45,13.97c.56,3.51,1.28,7.45,1.74,11.24h.11c.46-3.84,1.02-7.73,1.64-11.38l2.35-13.84h7.36l-7.87,32.38h-7.51Z"/><path class="cls-3" d="M389.58,133.37h-7.82v8.74h8.84v5.48h-15.53v-32.38h14.97v5.48h-8.28v7.44h7.82v5.24Z"/><path class="cls-3" d="M396.34,115.7c2.09-.39,4.75-.63,7.31-.63,3.68,0,7,.53,9.2,2.4,2.09,1.78,2.76,3.94,2.76,6.72,0,3.46-1.84,6.58-5.32,8.07v.1c2.35.91,3.53,2.93,4.19,6.44.66,3.6,1.59,7.59,2.2,8.79h-7c-.46-.92-1.23-4.18-1.74-7.78-.61-3.98-1.68-5.14-3.88-5.14h-1.02v12.92h-6.69v-31.89ZM403.04,129.82h1.22c2.91,0,4.55-2.21,4.55-5.04s-1.17-4.71-4.14-4.81c-.62,0-1.28.05-1.63.19v9.65Z"/><path class="cls-3" d="M421.43,141.15c1.38.73,3.78,1.25,5.67,1.25,3.12,0,4.7-1.53,4.7-3.65,0-2.36-1.54-3.51-4.45-5.29-4.7-2.69-6.49-6.1-6.49-9.03,0-5.18,3.68-9.51,10.83-9.51,2.3,0,4.44.57,5.41,1.15l-1.07,5.43c-.97-.58-2.45-1.11-4.34-1.11-2.86,0-4.24,1.64-4.24,3.37,0,1.92,1.02,2.93,4.7,5.04,4.6,2.6,6.23,5.86,6.23,9.27,0,5.91-4.65,9.8-11.35,9.8-2.76,0-5.41-.68-6.59-1.3l.97-5.43Z"/><path class="cls-3" d="M450.13,115.21v32.38h-6.69v-32.38h6.69Z"/><path class="cls-3" d="M477.69,130.83c0,12.19-4.6,17.15-11.14,17.15-7.82,0-10.89-7.79-10.89-16.67s3.74-16.47,11.4-16.47c8.28,0,10.63,8.59,10.63,16ZM462.62,131.4c0,7.35,1.48,11.1,4.19,11.1,2.86,0,3.94-4.8,3.94-11.38,0-5.67-.92-10.82-3.99-10.82-2.65,0-4.13,4.13-4.13,11.1Z"/><path class="cls-3" d="M483.2,147.59v-32.38h6.13l5.31,12.68c1.07,2.5,2.71,6.68,3.68,9.46h.11c-.21-3.41-.67-9.03-.67-14.98v-7.16h5.88v32.38h-6.14l-5.26-12.3c-1.18-2.74-2.71-6.87-3.52-9.75h-.11c.2,3.26.46,8.26.46,14.8v7.25h-5.88Z"/><path class="cls-3" d="M525.08,133.37h-7.82v8.74h8.84v5.48h-15.53v-32.38h14.97v5.48h-8.28v7.44h7.82v5.24Z"/><path class="cls-3" d="M531.32,141.15c1.38.73,3.78,1.25,5.67,1.25,3.12,0,4.7-1.53,4.7-3.65,0-2.36-1.53-3.51-4.45-5.29-4.7-2.69-6.49-6.1-6.49-9.03,0-5.18,3.68-9.51,10.83-9.51,2.3,0,4.45.57,5.41,1.15l-1.07,5.43c-.97-.58-2.46-1.11-4.35-1.11-2.86,0-4.24,1.64-4.24,3.37,0,1.92,1.02,2.93,4.7,5.04,4.6,2.6,6.24,5.86,6.24,9.27,0,5.91-4.65,9.8-11.35,9.8-2.76,0-5.42-.68-6.59-1.3l.97-5.43Z"/><path class="cls-3" d="M112.64,22.29c-46.63,0-84.44,37.8-84.44,84.44s37.81,84.43,84.44,84.43,84.43-37.8,84.43-84.43S159.27,22.29,112.64,22.29ZM82.57,131.09c2.51,0,5.37-.54,7.19-1.07l1.49,11.81c-2.17.97-6.4,1.72-11.54,1.72-19.76,0-29.13-15.14-29.13-35.75,0-27.27,16.11-37.9,31.07-37.9,5.25,0,8.91.97,10.39,1.93l-2.51,11.81c-1.71-.75-3.66-1.4-6.97-1.4-8.45,0-16.11,6.87-16.11,24.8s6.97,24.05,16.11,24.05ZM137.44,82.77h-18.5v18.57h17.36v11.7h-17.36v29.85h-14.96v-72.37h33.47v12.24ZM165.97,142.9h-14.96v-72.37h14.96v72.37Z"/><path class="cls-3" d="M15.91,107.38c0,4.39-3.56,7.96-7.96,7.96s-7.96-3.56-7.96-7.96,3.56-7.95,7.96-7.95,7.96,3.56,7.96,7.95Z"/><path class="cls-3" d="M225.28,107.38c0,4.39-3.56,7.96-7.96,7.96s-7.96-3.56-7.96-7.96,3.56-7.95,7.96-7.95,7.96,3.56,7.96,7.95Z"/><path class="cls-2" d="M7.96,106.05c0,57.82,46.87,104.69,104.69,104.69s104.68-46.87,104.68-104.69"/><path class="cls-1" d="M7.96,107.39C7.96,49.57,54.83,2.7,112.64,2.7s104.68,46.87,104.68,104.69"/></g></svg>